<svg class="svgLogoCrest"
                        viewBox="0 0 1334 1189" fill="none" xmlns="http://www.w3.org/2000/svg">
                        <path
                            d="M695.658 314.007C663.199 362.333 653.89 375.69 653.404 374.556C653.081 373.666 651.704 365.004 650.328 355.21C648.952 345.415 647.738 337.077 647.576 336.672C647.495 336.268 643.934 340.801 639.724 346.791C635.515 352.781 622.078 371.561 610.017 388.56C597.875 405.641 588 419.968 588 420.454C588 421.83 589.943 424.34 610.584 450.648L629.687 474.852L630.173 471.29C630.497 469.266 631.792 465.543 633.087 462.952L635.434 458.257L646.767 469.995C652.919 476.39 675.341 500.674 696.468 523.826C717.594 546.977 735.322 566 735.726 566C736.617 566.081 826.79 520.264 827.762 519.293C828.248 518.807 817.32 506.179 777.98 461.657L762.6 444.253L781.056 444.01L799.593 443.848L833.59 449.919C852.369 453.319 881.915 458.662 899.237 461.738C916.64 464.895 937.525 468.619 945.781 470.157C953.957 471.695 960.837 472.747 960.999 472.585C961.161 472.423 943.919 453.319 922.63 430.168C901.342 406.936 883.857 388.156 883.695 388.318C883.534 388.479 885.395 396.736 887.905 406.612C890.414 416.488 892.276 424.744 892.195 424.906C892.033 424.987 877.382 406.774 859.655 384.27C841.927 361.847 827.114 343.229 826.79 343.067C826.386 342.824 826.305 343.31 826.467 344.039C827.6 349.381 831.728 373.666 831.485 373.909C831.323 374.071 810.278 346.71 784.699 313.116C759.12 279.523 737.993 252 737.75 252C737.507 252 718.566 279.927 695.658 314.007Z"
                            fill="#1B2128" />
                        <path
                            d="M451.204 400.73C428.27 434.79 409.306 462.378 408.982 462.055C408.739 461.65 407.28 452.751 405.821 442.071C403.228 423.625 403.066 422.816 401.688 424.434C400.959 425.405 379.484 455.501 353.956 491.342C328.428 527.182 307.439 556.388 307.358 556.307C307.196 556.145 311.329 541.502 316.353 523.784C321.459 505.985 325.511 491.342 325.349 491.261C324.457 490.371 313.355 508.493 291.636 546.356L267 589.235L267.162 664.071C267.243 705.251 267.486 743.195 267.81 748.453L268.297 758L289.043 737.531L309.789 717.063L366.517 677.825C397.636 656.223 433.699 631.305 446.504 622.406C459.389 613.506 471.545 605.335 473.652 604.202L477.38 602.261L480.702 605.982C482.485 608.005 495.614 622.81 509.796 638.91C523.978 654.929 535.891 668.116 536.296 668.116C536.863 668.116 595.131 638.586 703.076 583.41C720.581 574.511 727.388 570.627 726.983 569.899C726.335 568.928 639.217 473.947 638.893 473.947C638.811 473.947 640.837 482.2 643.431 492.313C645.943 502.506 647.969 511.001 647.888 511.325C647.807 511.648 633.139 493.364 615.31 470.711C597.481 448.058 582.651 429.531 582.408 429.531C582.165 429.45 583.137 436.408 584.677 444.984C586.135 453.479 587.27 460.598 587.108 460.679C587.027 460.841 584.353 457.605 581.273 453.479C533.459 390.698 493.993 339.162 493.507 339C493.102 338.919 474.057 366.669 451.204 400.73Z"
                            fill="#1B2128" />
                        <path
                            d="M797.452 460.592C798.746 462.05 811.769 476.873 826.247 493.397L852.616 523.529L849.219 525.473C847.358 526.607 824.549 538.271 798.503 551.556C772.458 564.84 743.178 579.744 733.39 584.766C723.603 589.788 699.014 602.343 678.793 612.711C607.937 648.918 598.069 654.021 565.553 670.626L532.794 687.393L530.772 684.963C520.823 673.137 475.284 621.621 474.799 621.621C473.828 621.621 320.631 728.299 314.807 733.078C308.822 737.938 233.517 813.43 234.002 813.997C234.245 814.159 257.944 807.679 286.659 799.498C344.169 783.136 340.124 784.675 361.721 771.067C413.245 738.505 457.004 711.207 457.975 710.964C458.784 710.802 465.254 720.36 478.924 742.312C489.763 759.727 498.903 774.145 499.226 774.307C499.55 774.55 526.161 762.724 558.354 748.063C590.546 733.402 650.402 706.266 691.33 687.636C732.258 669.006 791.224 642.276 822.365 628.101C917.163 585.009 920.398 583.551 921.207 583.551C921.692 583.551 931.803 594.486 943.693 607.851C955.502 621.216 965.532 632.151 965.856 632.151C966.26 632.151 969.01 627.858 972.003 622.593C974.996 617.409 991.82 588.249 1009.37 557.793C1026.92 527.336 1041.16 502.307 1041 502.145C1040.92 502.064 1023.12 498.743 1001.53 494.936C979.93 491.048 954.451 486.431 944.906 484.73C875.668 472.094 796.967 458 795.915 458C795.43 458 796.077 459.215 797.452 460.592Z"
                            fill="#1B2128" />
                    </svg>