<svg width="807" height="562" viewBox="0 0 807 562" fill="none" xmlns="http://www.w3.org/2000/svg">
<path d="M461.658 62.0067C429.199 110.333 419.89 123.69 419.404 122.556C419.081 121.666 417.704 113.004 416.328 103.21C414.952 93.4148 413.738 85.0771 413.576 84.6723C413.495 84.2676 409.934 88.8007 405.724 94.7909C401.515 100.781 388.078 119.561 376.017 136.56C363.875 153.641 354 167.968 354 168.454C354 169.83 355.943 172.34 376.584 198.648L395.687 222.852L396.173 219.29C396.497 217.266 397.792 213.543 399.087 210.952L401.434 206.257L412.767 217.995C418.919 224.39 441.341 248.674 462.468 271.826C483.594 294.977 501.322 314 501.726 314C502.617 314.081 592.79 268.264 593.762 267.293C594.248 266.807 583.32 254.179 543.98 209.657L528.6 192.253L547.056 192.01L565.593 191.848L599.59 197.919C618.369 201.319 647.915 206.662 665.237 209.738C682.64 212.895 703.525 216.619 711.781 218.157C719.957 219.695 726.837 220.747 726.999 220.585C727.161 220.423 709.919 201.319 688.63 178.168C667.342 154.936 649.857 136.156 649.695 136.318C649.534 136.479 651.395 144.736 653.905 154.612C656.414 164.488 658.276 172.744 658.195 172.906C658.033 172.987 643.382 154.774 625.655 132.27C607.927 109.847 593.114 91.2292 592.79 91.0673C592.386 90.8244 592.305 91.3101 592.467 92.0386C593.6 97.3813 597.728 121.666 597.485 121.909C597.323 122.071 576.278 94.7099 550.699 61.1162C525.12 27.5226 503.993 0 503.75 0C503.507 0 484.566 27.9273 461.658 62.0067Z" fill="#1B2128"/>
<path d="M217.204 148.73C194.27 182.79 175.306 210.378 174.982 210.055C174.739 209.65 173.28 200.751 171.822 190.071C169.228 171.625 169.066 170.816 167.688 172.434C166.959 173.405 145.484 203.501 119.956 239.342C94.4283 275.182 73.439 304.388 73.3579 304.307C73.1958 304.145 77.3289 289.502 82.3534 271.784C87.4589 253.985 91.5109 239.342 91.3488 239.261C90.4574 238.371 79.3549 256.493 57.6362 294.356L33 337.235L33.1621 412.071C33.2431 453.251 33.4862 491.195 33.8104 496.453L34.2966 506L55.0429 485.531L75.7891 465.063L132.517 425.825C163.636 404.223 199.699 379.305 212.504 370.406C225.389 361.506 237.545 353.335 239.652 352.202L243.38 350.261L246.702 353.982C248.485 356.005 261.614 370.81 275.796 386.91C289.978 402.929 301.891 416.116 302.296 416.116C302.863 416.116 361.131 386.586 469.076 331.41C486.581 322.511 493.388 318.627 492.983 317.899C492.335 316.928 405.217 221.947 404.893 221.947C404.811 221.947 406.837 230.2 409.431 240.312C411.943 250.506 413.969 259.001 413.888 259.325C413.807 259.648 399.139 241.364 381.31 218.711C363.481 196.058 348.651 177.531 348.408 177.531C348.165 177.45 349.137 184.408 350.677 192.984C352.135 201.479 353.27 208.598 353.108 208.679C353.027 208.841 350.353 205.605 347.273 201.479C299.459 138.698 259.993 87.162 259.507 87.0002C259.102 86.9193 240.057 114.669 217.204 148.73Z" fill="#1B2128"/>
<path d="M563.452 208.592C564.746 210.05 577.769 224.873 592.247 241.397L618.616 271.529L615.219 273.473C613.358 274.607 590.549 286.271 564.503 299.556C538.458 312.84 509.178 327.744 499.39 332.766C489.603 337.788 465.014 350.343 444.793 360.711C373.937 396.918 364.069 402.021 331.553 418.626L298.794 435.393L296.772 432.963C286.823 421.137 241.284 369.621 240.799 369.621C239.828 369.621 86.6309 476.299 80.8071 481.078C74.8216 485.938 -0.482978 561.43 0.00233553 561.997C0.244993 562.159 23.9445 555.679 52.6589 547.498C110.169 531.136 106.124 532.675 127.721 519.067C179.245 486.505 223.004 459.207 223.975 458.964C224.784 458.802 231.254 468.36 244.924 490.312C255.763 507.727 264.903 522.145 265.226 522.307C265.55 522.55 292.161 510.724 324.354 496.063C356.546 481.402 416.402 454.266 457.33 435.636C498.258 417.006 557.224 390.276 588.365 376.101C683.163 333.009 686.398 331.551 687.207 331.551C687.692 331.551 697.803 342.486 709.693 355.851C721.503 369.216 731.532 380.151 731.856 380.151C732.26 380.151 735.01 375.858 738.003 370.593C740.996 365.409 757.82 336.249 775.372 305.793C792.925 275.336 807.16 250.307 806.999 250.145C806.918 250.064 789.123 246.743 767.526 242.936C745.93 239.048 720.451 234.431 710.906 232.73C641.668 220.094 562.967 206 561.915 206C561.43 206 562.077 207.215 563.452 208.592Z" fill="#1B2128"/>
</svg>
